<svg id="图层_1" data-name="图层 1" xmlns="http://www.w3.org/2000/svg" viewBox="0 0 256 256"><defs><style>.cls-1{fill:#006680;}.cls-2{fill:#fcee21;}.cls-3{fill:#fff;}</style></defs><title>ico</title><rect class="cls-1" width="256" height="256" rx="41.702"/><path class="cls-2" d="M23,78H41.365v8.874H30.585v82.252h10.78V178H23Z"/><path class="cls-3" d="M47.723,98.756H92.655v7.453H73.905v51.124H66.166V106.209H47.723Z"/><path class="cls-3" d="M121.205,98a27.667,27.667,0,0,1,20.757,8.583q8.292,8.583,8.292,21.521t-8.369,21.417Q133.517,158,120.782,158a26.86,26.86,0,0,1-20.259-8.479q-8.1-8.479-8.1-21.249,0-13.106,8.157-21.689T121.205,98Zm.308,7.955a19.98,19.98,0,0,0-15.176,6.281q-5.943,6.28-5.943,16.036a21.961,21.961,0,0,0,5.963,15.743,20.841,20.841,0,0,0,29.945-.126,22.391,22.391,0,0,0,6.021-15.952A21.85,21.85,0,0,0,136.3,112.3,19.6,19.6,0,0,0,121.513,105.958Z"/><path class="cls-3" d="M206.083,143.767v9.211A37.6,37.6,0,0,1,186.524,158q-9.009,0-15.286-3.936a27.921,27.921,0,0,1-9.932-10.845,31.439,31.439,0,0,1-3.659-14.947,29.8,29.8,0,0,1,8.375-21.48,27.524,27.524,0,0,1,20.656-8.709q8.47,0,18.828,4.815v9q-9.435-5.862-18.443-5.862a20.4,20.4,0,0,0-15.343,6.343,22.006,22.006,0,0,0-6.1,15.89q0,9.63,6.006,15.827a20.465,20.465,0,0,0,15.362,6.2Q196.766,150.3,206.083,143.767Z"/><path class="cls-2" d="M233,178H214.712v-8.874h10.7V86.874h-10.7V78H233Z"/></svg>